# xmcd CD database file
#
# Track frame offsets:
#	150
#	3300
#	5629
#	7965
#	13196
#	29805
#	56619
#	78189
#	95791
#	127150
#	132476
#	145256
#	173124
#	194380
#	202965
#	232349
#	242344
#	275460
#
# Disc length: 3750 seconds
#
# Revision: 0
# Processed by: cddbd v1.5.1PL0 Copyright (c) Steve Scherf et al.
# Submitted via: CDex 1.51
#
DISCID=fc0ea412
DTITLE=わかしゃち国体 - わかしゃち国体 式典音楽使用曲集
DYEAR=1900
DGENRE=Vocal
TTITLE0=ファンファーレ「開式通告」
TTITLE1=ファンファーレ「開会宣言」
TTITLE2=ファンファーレ「閉式通告」
TTITLE3=ファンファーレ「閉会宣言」［吹奏楽付き］
TTITLE4=行進曲「メインマーチ」“Ａ Ｌｉｇｈｔ Ｂｒｅｅｚｅ”
TTITLE5=行進曲「サブテーマのマーチ」“未来への前進”
TTITLE6=行進曲「シャッチーのマーチ」［合唱付き］
TTITLE7=行進曲「人間讃歌のマーチ」“保科 洋”の主題による
TTITLE8=行進曲「ふるさとマーチ」
TTITLE9=ドラムマーチ（Ａ・Ｂ）
TTITLE10=鼓隊曲（日体協旗・競技役員入場用）
TTITLE11=鼓隊曲（国体旗引継ぎ用）
TTITLE12=炬火関連曲［合唱付き］いまここに/いつまでも
TTITLE13=国体讃歌［合唱付き］
TTITLE14=人間讃歌［合唱付き］
TTITLE15=得賞歌
TTITLE16=マーチング曲「愛の讃歌」
TTITLE17=愛知県民歌［合唱付き］
EXTD=
EXTT0=
EXTT1=
EXTT2=
EXTT3=
EXTT4=
EXTT5=
EXTT6=
EXTT7=
EXTT8=
EXTT9=
EXTT10=
EXTT11=
EXTT12=
EXTT13=
EXTT14=
EXTT15=
EXTT16=
EXTT17=
PLAYORDER=
